<svg width="16.000000" height="16.000000" viewBox="0 0 16 16" fill="none" xmlns="http://www.w3.org/2000/svg" xmlns:xlink="http://www.w3.org/1999/xlink">
	<desc>
			Created with Pixso.
	</desc>
	<defs>
		<clipPath id="clip230_519">
			<rect id="icon carbon-chart-area-smooth" rx="0.000000" width="15.000000" height="15.000000" transform="translate(0.500000 0.500000)" fill="white" fill-opacity="0"/>
		</clipPath>
	</defs>
	<rect id="icon carbon-chart-area-smooth" rx="0.000000" width="15.000000" height="15.000000" transform="translate(0.500000 0.500000)" fill="#FFFFFF" fill-opacity="0"/>
	<g clip-path="url(#clip230_519)">
		<path id="Vector" d="M15 3.3L14.34 3.52C13.42 3.81 12.46 3.97 11.5 4C10.63 4 9.83 3.54 8.99 3.06C8.08 2.54 7.13 2 6 2C4.56 2 2.95 3.1 2 3.88L2 1L1 1L1 14C1 14.26 1.1 14.51 1.29 14.7C1.48 14.89 1.73 14.99 2 15L15 15L15 3.3ZM2 10.14C2.93 8.68 4.77 6.5 6 6.5C6.81 6.5 7.47 7.05 8.18 7.63C8.94 8.27 9.81 9 11 9C12.11 8.94 13.18 8.49 14 7.73L14 10.21C13.07 10.71 12.04 10.98 11 11C10.19 10.97 9.4 10.81 8.65 10.52C7.8 10.19 6.9 10.01 6 10C4.53 10 2.96 11.47 2 12.57L2 10.14ZM6 3C6.86 3 7.66 3.45 8.5 3.93C9.41 4.45 10.36 5 11.5 5C12.34 4.98 13.18 4.87 14 4.66L14 6.32C13.65 6.72 12.45 8 11 8C10.18 8 9.52 7.44 8.81 6.86C8.05 6.22 7.18 5.5 6 5.5C4.53 5.5 2.96 7.17 2 8.42L2 5.21C2.77 4.48 4.62 3 6 3ZM2.12 14C2.93 12.95 4.7 11 6 11C6.8 11.02 7.59 11.18 8.34 11.47C9.19 11.8 10.09 11.98 11 12C12.03 11.99 13.05 11.76 14 11.33L14 14L2.12 14Z" fill="#E77C40" fill-opacity="1.000000" fill-rule="nonzero"/>
	</g>
</svg>
