<svg width="12.939941" height="13.139343" viewBox="0 0 12.9399 13.1393" fill="none" xmlns="http://www.w3.org/2000/svg" xmlns:xlink="http://www.w3.org/1999/xlink">
	<desc>
			Created with Pixso.
	</desc>
	<defs/>
	<path id="coolicon" d="M6.47 13.13C3.17 13.09 0.51 10.43 0.47 7.13C0.51 3.84 3.17 1.18 6.47 1.13C9.76 1.18 12.42 3.84 12.47 7.13C12.42 10.43 9.76 13.09 6.47 13.13ZM6.47 2.47C3.9 2.5 1.83 4.57 1.8 7.13C1.83 9.7 3.9 11.77 6.47 11.8C9.03 11.77 11.1 9.7 11.13 7.13C11.1 4.57 9.03 2.5 6.47 2.47ZM9.8 7.8L5.8 7.8L5.8 3.8L7.13 3.8L7.13 6.47L9.8 6.47L9.8 7.8ZM12 2.94L9.99 0.94L10.93 0L12.93 2L12 2.94L12 2.94ZM0.94 2.94L0 2L1.99 0L2.93 0.94L0.94 2.94L0.94 2.94Z" fill="#23A6F0" fill-opacity="1.000000" fill-rule="nonzero"/>
</svg>
